<!--?xml version="1.0" standalone="no"?-->
              <svg id="sw-js-blob-svg" viewBox="0 0 100 100" xmlns="http://www.w3.org/2000/svg" version="1.1">
                    <defs> 
                        <linearGradient id="sw-gradient" x1="0" x2="1" y1="1" y2="0">
                            <stop id="stop1" stop-color="rgba(248, 117, 55, 1)" offset="0%"></stop>
                            <stop id="stop2" stop-color="rgba(251, 168, 31, 1)" offset="100%"></stop>
                        </linearGradient>
                    </defs>
                <path fill="url(#sw-gradient)" d="M26.3,-31.4C34.1,-24.9,40.4,-16.5,42.4,-7.2C44.3,2.2,42.1,12.6,36.9,21.2C31.8,29.8,23.8,36.6,15,38.7C6.3,40.8,-3.3,38.1,-12.5,34.7C-21.8,31.2,-30.7,27,-35.5,19.9C-40.4,12.7,-41.2,2.7,-39.6,-7.1C-38.1,-16.9,-34.1,-26.5,-27.1,-33.2C-20.1,-39.9,-10.1,-43.7,-0.4,-43.3C9.3,-42.8,18.6,-38,26.3,-31.4Z" width="100%" height="100%" transform="translate(50 50)" stroke-width="0" style="transition: all 0.3s ease 0s;"></path>
              </svg>