<svg width="30" height="30" viewBox="0 0 30 30" fill="none" xmlns="http://www.w3.org/2000/svg">
<g clip-path="url(#clip0_256_973)">
<path d="M15 30C23.2843 30 30 23.2843 30 15C30 6.71573 23.2843 0 15 0C6.71573 0 0 6.71573 0 15C0 23.2843 6.71573 30 15 30Z" fill="#F0F0F0"/>
<path d="M3.10089 5.86768C1.92263 7.40066 1.03417 9.16756 0.516846 11.087H8.32024L3.10089 5.86768Z" fill="#0052B4"/>
<path d="M29.4835 11.087C28.9661 9.16756 28.0776 7.40066 26.8994 5.86768L21.6802 11.087H29.4835Z" fill="#0052B4"/>
<path d="M0.516846 18.9131C1.03423 20.8325 1.92269 22.5994 3.10089 24.1323L8.32007 18.9131H0.516846Z" fill="#0052B4"/>
<path d="M24.1324 3.1007C22.5994 1.92244 20.8326 1.03398 18.9131 0.516602V8.31994L24.1324 3.1007Z" fill="#0052B4"/>
<path d="M5.86792 26.8989C7.40091 28.0771 9.1678 28.9656 11.0872 29.483V21.6797L5.86792 26.8989Z" fill="#0052B4"/>
<path d="M11.0872 0.516602C9.16774 1.03398 7.40085 1.92244 5.86792 3.10064L11.0872 8.31988V0.516602Z" fill="#0052B4"/>
<path d="M18.9131 29.483C20.8325 28.9656 22.5994 28.0771 24.1323 26.8989L18.9131 21.6797V29.483Z" fill="#0052B4"/>
<path d="M21.6802 18.9131L26.8994 24.1324C28.0776 22.5995 28.9661 20.8325 29.4835 18.9131H21.6802Z" fill="#0052B4"/>
<path d="M29.873 13.0435H16.9566H16.9566V0.126973C16.3161 0.0435938 15.6631 0 15 0C14.3368 0 13.6839 0.0435938 13.0435 0.126973V13.0434V13.0434H0.126973C0.0435938 13.6839 0 14.3369 0 15C0 15.6632 0.0435938 16.3161 0.126973 16.9565H13.0434H13.0434V29.873C13.6839 29.9564 14.3368 30 15 30C15.6631 30 16.3161 29.9565 16.9565 29.873V16.9566V16.9566H29.873C29.9564 16.3161 30 15.6632 30 15C30 14.3369 29.9564 13.6839 29.873 13.0435Z" fill="#D80027"/>
<path d="M18.9131 18.9131L25.6066 25.6067C25.9145 25.2989 26.2081 24.9772 26.4883 24.6437L20.7577 18.9131H18.9131V18.9131Z" fill="#D80027"/>
<path d="M11.0869 18.9131H11.0868L4.39331 25.6065C4.70104 25.9144 5.02278 26.2081 5.3563 26.4883L11.0869 20.7576V18.9131Z" fill="#D80027"/>
<path d="M11.087 11.0872V11.0871L4.39344 4.39355C4.08559 4.70129 3.79191 5.02303 3.51172 5.35654L9.24236 11.0872H11.087V11.0872Z" fill="#D80027"/>
<path d="M18.9131 11.087L25.6067 4.39338C25.2989 4.08553 24.9772 3.79186 24.6437 3.51172L18.9131 9.24236V11.087Z" fill="#D80027"/>
</g>
<defs>
<clipPath id="clip0_256_973">
<rect width="30" height="30" fill="white"/>
</clipPath>
</defs>
</svg>
